# xmcd
#
# Track frame offsets:
#	150
#	16469
#	35546
#	52098
#	69680
#	84139
#	101857
#	118177
#	137254
#	153807
#	171389
#	185847
#
# Disc length: 2714 seconds
#
# Revision: 1
# Processed by: cddbd v1.5.2PL0 Copyright (c) Steve Scherf et al.
# Submitted via: audiograbber 1.83.01
#
DISCID=a30a980c
DTITLE=Various Artist - CB20035 Hot Hits Vol. 35
DYEAR=1900
DGENRE=Country
TTITLE0=GeorgeStrait - I Just Want To Dance With You (Vocals)
TTITLE1=LeAnn Rimes - Commitment (Vocals)
TTITLE2=Clint Black - The Shoes You're Wearing (Vocal)
TTITLE3=Ty Herndon - A Man Holding On (Vocals)
TTITLE4=Lee Ann Womack - Buckaroo (Vocals)
TTITLE5=Nitty Gritty Dirt Band - Bang, Bang, Bang (Vocals)
TTITLE6=George Strait - I Just Want To  Dance With You
TTITLE7=LeAnn Rimes - Commitment
TTITLE8=Clint Black - The Shoes You're Wearing
TTITLE9=Ty Herndon - A Man Holding On
TTITLE10=Lee Ann Womack - Buckaroo
TTITLE11=Nitty Gritty Dirt Band - Bang, Bang, Bang
EXTD=
EXTT0=
EXTT1=
EXTT2=
EXTT3=
EXTT4=
EXTT5=
EXTT6=
EXTT7=
EXTT8=
EXTT9=
EXTT10=
EXTT11=
PLAYORDER=
